%TF.GenerationSoftware,KiCad,Pcbnew,(5.1.10)-1*%
%TF.CreationDate,2021-10-24T18:36:42-03:00*%
%TF.ProjectId,Modulo_seguidor1,4d6f6475-6c6f-45f7-9365-677569646f72,rev?*%
%TF.SameCoordinates,Original*%
%TF.FileFunction,Copper,L2,Bot*%
%TF.FilePolarity,Positive*%
%FSLAX46Y46*%
G04 Gerber Fmt 4.6, Leading zero omitted, Abs format (unit mm)*
G04 Created by KiCad (PCBNEW (5.1.10)-1) date 2021-10-24 18:36:42*
%MOMM*%
%LPD*%
G01*
G04 APERTURE LIST*
%TA.AperFunction,NonConductor*%
%ADD10C,0.300000*%
%TD*%
%TA.AperFunction,ComponentPad*%
%ADD11O,2.032000X2.032000*%
%TD*%
%TA.AperFunction,ComponentPad*%
%ADD12C,2.032000*%
%TD*%
%TA.AperFunction,ComponentPad*%
%ADD13O,1.524000X1.778000*%
%TD*%
%TA.AperFunction,ComponentPad*%
%ADD14R,2.286000X1.778000*%
%TD*%
%TA.AperFunction,ComponentPad*%
%ADD15O,2.286000X1.778000*%
%TD*%
%TA.AperFunction,Conductor*%
%ADD16C,0.635000*%
%TD*%
%TA.AperFunction,Conductor*%
%ADD17C,0.254000*%
%TD*%
%TA.AperFunction,Conductor*%
%ADD18C,0.100000*%
%TD*%
G04 APERTURE END LIST*
D10*
X135298571Y-87606428D02*
X133798571Y-87606428D01*
X134870000Y-88106428D01*
X133798571Y-88606428D01*
X135298571Y-88606428D01*
X133798571Y-89606428D02*
X133798571Y-89749285D01*
X133870000Y-89892142D01*
X133941428Y-89963571D01*
X134084285Y-90035000D01*
X134370000Y-90106428D01*
X134727142Y-90106428D01*
X135012857Y-90035000D01*
X135155714Y-89963571D01*
X135227142Y-89892142D01*
X135298571Y-89749285D01*
X135298571Y-89606428D01*
X135227142Y-89463571D01*
X135155714Y-89392142D01*
X135012857Y-89320714D01*
X134727142Y-89249285D01*
X134370000Y-89249285D01*
X134084285Y-89320714D01*
X133941428Y-89392142D01*
X133870000Y-89463571D01*
X133798571Y-89606428D01*
X133798571Y-91392142D02*
X133798571Y-91106428D01*
X133870000Y-90963571D01*
X133941428Y-90892142D01*
X134155714Y-90749285D01*
X134441428Y-90677857D01*
X135012857Y-90677857D01*
X135155714Y-90749285D01*
X135227142Y-90820714D01*
X135298571Y-90963571D01*
X135298571Y-91249285D01*
X135227142Y-91392142D01*
X135155714Y-91463571D01*
X135012857Y-91535000D01*
X134655714Y-91535000D01*
X134512857Y-91463571D01*
X134441428Y-91392142D01*
X134370000Y-91249285D01*
X134370000Y-90963571D01*
X134441428Y-90820714D01*
X134512857Y-90749285D01*
X134655714Y-90677857D01*
D11*
%TO.P,R2,2*%
%TO.N,Net-(P1-Pad3)*%
X128905000Y-99695000D03*
D12*
%TO.P,R2,1*%
%TO.N,Net-(P1-Pad2)*%
X121285000Y-99695000D03*
%TD*%
D13*
%TO.P,U1,CATH*%
%TO.N,GND*%
X127000000Y-87420000D03*
%TO.P,U1,A*%
%TO.N,Net-(R1-Pad2)*%
X124460000Y-87420000D03*
%TO.P,U1,E*%
%TO.N,GND*%
X127000000Y-92920000D03*
%TO.P,U1,COLL*%
%TO.N,Net-(P1-Pad3)*%
X124460000Y-92920000D03*
%TD*%
D11*
%TO.P,R1,2*%
%TO.N,Net-(R1-Pad2)*%
X128905000Y-79375000D03*
D12*
%TO.P,R1,1*%
%TO.N,Net-(P1-Pad2)*%
X121285000Y-79375000D03*
%TD*%
D14*
%TO.P,P1,1*%
%TO.N,GND*%
X116332000Y-87376000D03*
D15*
%TO.P,P1,2*%
%TO.N,Net-(P1-Pad2)*%
X116332000Y-89916000D03*
%TO.P,P1,3*%
%TO.N,Net-(P1-Pad3)*%
X116332000Y-92456000D03*
%TD*%
D16*
%TO.N,Net-(P1-Pad2)*%
X121031000Y-89916000D02*
X121285000Y-90170000D01*
X116332000Y-89916000D02*
X121031000Y-89916000D01*
X121285000Y-90170000D02*
X121285000Y-79375000D01*
X121285000Y-99695000D02*
X121285000Y-90170000D01*
%TO.N,Net-(P1-Pad3)*%
X124460000Y-92920000D02*
X124460000Y-99695000D01*
X124460000Y-99695000D02*
X128905000Y-99695000D01*
X124460000Y-101600000D02*
X124460000Y-99695000D01*
X123190000Y-102870000D02*
X124460000Y-101600000D01*
X120015000Y-102870000D02*
X123190000Y-102870000D01*
X119380000Y-102235000D02*
X120015000Y-102870000D01*
X119380000Y-93980000D02*
X119380000Y-102235000D01*
X117856000Y-92456000D02*
X119380000Y-93980000D01*
X116332000Y-92456000D02*
X117856000Y-92456000D01*
%TO.N,Net-(R1-Pad2)*%
X124460000Y-87420000D02*
X124460000Y-80645000D01*
X125730000Y-79375000D02*
X128905000Y-79375000D01*
X124460000Y-80645000D02*
X125730000Y-79375000D01*
%TD*%
D17*
%TO.N,GND*%
X139036001Y-104036000D02*
X123502474Y-104036000D01*
X123653941Y-103990053D01*
X123863538Y-103878021D01*
X124047252Y-103727252D01*
X124085034Y-103681214D01*
X125271220Y-102495029D01*
X125317252Y-102457252D01*
X125468021Y-102273538D01*
X125580053Y-102063941D01*
X125649042Y-101836515D01*
X125666500Y-101659263D01*
X125666500Y-101659262D01*
X125672337Y-101600001D01*
X125666500Y-101540740D01*
X125666500Y-100901500D01*
X127420034Y-100901500D01*
X127425290Y-100909366D01*
X127690634Y-101174710D01*
X128002644Y-101383189D01*
X128349332Y-101526791D01*
X128717374Y-101600000D01*
X129092626Y-101600000D01*
X129460668Y-101526791D01*
X129807356Y-101383189D01*
X130119366Y-101174710D01*
X130384710Y-100909366D01*
X130593189Y-100597356D01*
X130736791Y-100250668D01*
X130810000Y-99882626D01*
X130810000Y-99754855D01*
X132511000Y-99754855D01*
X132511000Y-100245145D01*
X132606651Y-100726014D01*
X132794277Y-101178984D01*
X133066668Y-101586645D01*
X133413355Y-101933332D01*
X133821016Y-102205723D01*
X134273986Y-102393349D01*
X134754855Y-102489000D01*
X135245145Y-102489000D01*
X135726014Y-102393349D01*
X136178984Y-102205723D01*
X136586645Y-101933332D01*
X136933332Y-101586645D01*
X137205723Y-101178984D01*
X137393349Y-100726014D01*
X137489000Y-100245145D01*
X137489000Y-99754855D01*
X137393349Y-99273986D01*
X137205723Y-98821016D01*
X136933332Y-98413355D01*
X136586645Y-98066668D01*
X136178984Y-97794277D01*
X135726014Y-97606651D01*
X135245145Y-97511000D01*
X134754855Y-97511000D01*
X134273986Y-97606651D01*
X133821016Y-97794277D01*
X133413355Y-98066668D01*
X133066668Y-98413355D01*
X132794277Y-98821016D01*
X132606651Y-99273986D01*
X132511000Y-99754855D01*
X130810000Y-99754855D01*
X130810000Y-99507374D01*
X130736791Y-99139332D01*
X130593189Y-98792644D01*
X130384710Y-98480634D01*
X130119366Y-98215290D01*
X129807356Y-98006811D01*
X129460668Y-97863209D01*
X129092626Y-97790000D01*
X128717374Y-97790000D01*
X128349332Y-97863209D01*
X128002644Y-98006811D01*
X127690634Y-98215290D01*
X127425290Y-98480634D01*
X127420034Y-98488500D01*
X125666500Y-98488500D01*
X125666500Y-94179362D01*
X125839398Y-93968684D01*
X125886834Y-93879937D01*
X125974151Y-93995285D01*
X126178864Y-94177197D01*
X126415132Y-94315676D01*
X126656930Y-94401220D01*
X126872998Y-94278721D01*
X126872998Y-94345749D01*
X126844378Y-94414844D01*
X126791000Y-94683195D01*
X126791000Y-94956805D01*
X126844378Y-95225156D01*
X126949084Y-95477938D01*
X127101093Y-95705436D01*
X127294564Y-95898907D01*
X127522062Y-96050916D01*
X127774844Y-96155622D01*
X128043195Y-96209000D01*
X128316805Y-96209000D01*
X128585156Y-96155622D01*
X128837938Y-96050916D01*
X129065436Y-95898907D01*
X129258907Y-95705436D01*
X129410916Y-95477938D01*
X129515622Y-95225156D01*
X129569000Y-94956805D01*
X129569000Y-94683195D01*
X129515622Y-94414844D01*
X129410916Y-94162062D01*
X129258907Y-93934564D01*
X129065436Y-93741093D01*
X128837938Y-93589084D01*
X128585156Y-93484378D01*
X128335647Y-93434748D01*
X128379801Y-93265539D01*
X128238250Y-93047000D01*
X127127000Y-93047000D01*
X127127000Y-93067000D01*
X126873000Y-93067000D01*
X126873000Y-93047000D01*
X126853000Y-93047000D01*
X126853000Y-92793000D01*
X126873000Y-92793000D01*
X126873000Y-92773000D01*
X127127000Y-92773000D01*
X127127000Y-92793000D01*
X128238250Y-92793000D01*
X128379801Y-92574461D01*
X128310654Y-92309474D01*
X128267772Y-92221064D01*
X128643197Y-92065557D01*
X128993533Y-91831470D01*
X129291470Y-91533533D01*
X129525557Y-91183197D01*
X129686800Y-90793923D01*
X129769000Y-90380673D01*
X129769000Y-89959327D01*
X129686800Y-89546077D01*
X129525557Y-89156803D01*
X129291470Y-88806467D01*
X128993533Y-88508530D01*
X128643197Y-88274443D01*
X128267772Y-88118936D01*
X128310654Y-88030526D01*
X128379801Y-87765539D01*
X128238250Y-87547000D01*
X127127000Y-87547000D01*
X127127000Y-87567000D01*
X126873000Y-87567000D01*
X126873000Y-87547000D01*
X126853000Y-87547000D01*
X126853000Y-87293000D01*
X126873000Y-87293000D01*
X126873000Y-86061280D01*
X127127000Y-86061280D01*
X127127000Y-87293000D01*
X128238250Y-87293000D01*
X128379801Y-87074461D01*
X128310654Y-86809474D01*
X128191139Y-86563069D01*
X128025849Y-86344715D01*
X127874570Y-86210285D01*
X132576000Y-86210285D01*
X132576000Y-92859714D01*
X136904000Y-92859714D01*
X136904000Y-86210285D01*
X132576000Y-86210285D01*
X127874570Y-86210285D01*
X127821136Y-86162803D01*
X127584868Y-86024324D01*
X127343070Y-85938780D01*
X127127000Y-86061280D01*
X126873000Y-86061280D01*
X126656930Y-85938780D01*
X126415132Y-86024324D01*
X126178864Y-86162803D01*
X125974151Y-86344715D01*
X125886834Y-86460063D01*
X125839398Y-86371316D01*
X125666500Y-86160638D01*
X125666500Y-81144748D01*
X126229749Y-80581500D01*
X127420034Y-80581500D01*
X127425290Y-80589366D01*
X127690634Y-80854710D01*
X128002644Y-81063189D01*
X128349332Y-81206791D01*
X128717374Y-81280000D01*
X129092626Y-81280000D01*
X129460668Y-81206791D01*
X129807356Y-81063189D01*
X130119366Y-80854710D01*
X130384710Y-80589366D01*
X130593189Y-80277356D01*
X130736791Y-79930668D01*
X130771762Y-79754855D01*
X132511000Y-79754855D01*
X132511000Y-80245145D01*
X132606651Y-80726014D01*
X132794277Y-81178984D01*
X133066668Y-81586645D01*
X133413355Y-81933332D01*
X133821016Y-82205723D01*
X134273986Y-82393349D01*
X134754855Y-82489000D01*
X135245145Y-82489000D01*
X135726014Y-82393349D01*
X136178984Y-82205723D01*
X136586645Y-81933332D01*
X136933332Y-81586645D01*
X137205723Y-81178984D01*
X137393349Y-80726014D01*
X137489000Y-80245145D01*
X137489000Y-79754855D01*
X137393349Y-79273986D01*
X137205723Y-78821016D01*
X136933332Y-78413355D01*
X136586645Y-78066668D01*
X136178984Y-77794277D01*
X135726014Y-77606651D01*
X135245145Y-77511000D01*
X134754855Y-77511000D01*
X134273986Y-77606651D01*
X133821016Y-77794277D01*
X133413355Y-78066668D01*
X133066668Y-78413355D01*
X132794277Y-78821016D01*
X132606651Y-79273986D01*
X132511000Y-79754855D01*
X130771762Y-79754855D01*
X130810000Y-79562626D01*
X130810000Y-79187374D01*
X130736791Y-78819332D01*
X130593189Y-78472644D01*
X130384710Y-78160634D01*
X130119366Y-77895290D01*
X129807356Y-77686811D01*
X129460668Y-77543209D01*
X129092626Y-77470000D01*
X128717374Y-77470000D01*
X128349332Y-77543209D01*
X128002644Y-77686811D01*
X127690634Y-77895290D01*
X127425290Y-78160634D01*
X127420034Y-78168500D01*
X125789260Y-78168500D01*
X125729999Y-78162663D01*
X125670738Y-78168500D01*
X125670737Y-78168500D01*
X125493485Y-78185958D01*
X125266059Y-78254947D01*
X125056462Y-78366979D01*
X124872748Y-78517748D01*
X124834970Y-78563781D01*
X123648782Y-79749970D01*
X123602749Y-79787748D01*
X123564971Y-79833781D01*
X123451979Y-79971462D01*
X123339948Y-80181059D01*
X123270959Y-80408485D01*
X123247663Y-80645000D01*
X123253501Y-80704271D01*
X123253500Y-86160638D01*
X123080602Y-86371317D01*
X122927295Y-86658134D01*
X122832889Y-86969348D01*
X122809000Y-87211897D01*
X122809000Y-87628104D01*
X122832889Y-87870653D01*
X122927295Y-88181867D01*
X122947779Y-88220191D01*
X122816803Y-88274443D01*
X122491500Y-88491803D01*
X122491500Y-80859966D01*
X122499366Y-80854710D01*
X122764710Y-80589366D01*
X122973189Y-80277356D01*
X123116791Y-79930668D01*
X123190000Y-79562626D01*
X123190000Y-79187374D01*
X123116791Y-78819332D01*
X122973189Y-78472644D01*
X122764710Y-78160634D01*
X122499366Y-77895290D01*
X122187356Y-77686811D01*
X121840668Y-77543209D01*
X121472626Y-77470000D01*
X121097374Y-77470000D01*
X120729332Y-77543209D01*
X120382644Y-77686811D01*
X120070634Y-77895290D01*
X119805290Y-78160634D01*
X119596811Y-78472644D01*
X119453209Y-78819332D01*
X119380000Y-79187374D01*
X119380000Y-79562626D01*
X119453209Y-79930668D01*
X119596811Y-80277356D01*
X119805290Y-80589366D01*
X120070634Y-80854710D01*
X120078501Y-80859966D01*
X120078500Y-88709500D01*
X117931671Y-88709500D01*
X118005537Y-88619494D01*
X118064502Y-88509180D01*
X118100812Y-88389482D01*
X118113072Y-88265000D01*
X118110000Y-87661750D01*
X117951250Y-87503000D01*
X116459000Y-87503000D01*
X116459000Y-87523000D01*
X116205000Y-87523000D01*
X116205000Y-87503000D01*
X114712750Y-87503000D01*
X114554000Y-87661750D01*
X114550928Y-88265000D01*
X114563188Y-88389482D01*
X114599498Y-88509180D01*
X114658463Y-88619494D01*
X114737815Y-88716185D01*
X114752605Y-88728323D01*
X114592495Y-88923417D01*
X114427395Y-89232297D01*
X114325727Y-89567451D01*
X114291398Y-89916000D01*
X114325727Y-90264549D01*
X114427395Y-90599703D01*
X114592495Y-90908583D01*
X114814682Y-91179318D01*
X114822824Y-91186000D01*
X114814682Y-91192682D01*
X114592495Y-91463417D01*
X114427395Y-91772297D01*
X114325727Y-92107451D01*
X114291398Y-92456000D01*
X114325727Y-92804549D01*
X114427395Y-93139703D01*
X114592495Y-93448583D01*
X114814682Y-93719318D01*
X115085417Y-93941505D01*
X115394297Y-94106605D01*
X115729451Y-94208273D01*
X115990662Y-94234000D01*
X116673338Y-94234000D01*
X116934549Y-94208273D01*
X117269703Y-94106605D01*
X117578583Y-93941505D01*
X117609711Y-93915959D01*
X118173500Y-94479749D01*
X118173501Y-102175729D01*
X118167663Y-102235000D01*
X118190959Y-102471515D01*
X118259948Y-102698941D01*
X118371979Y-102908538D01*
X118483823Y-103044821D01*
X118522749Y-103092252D01*
X118568783Y-103130031D01*
X119119961Y-103681208D01*
X119157748Y-103727252D01*
X119341462Y-103878021D01*
X119551059Y-103990053D01*
X119702526Y-104036000D01*
X110964000Y-104036000D01*
X110964000Y-99754855D01*
X112511000Y-99754855D01*
X112511000Y-100245145D01*
X112606651Y-100726014D01*
X112794277Y-101178984D01*
X113066668Y-101586645D01*
X113413355Y-101933332D01*
X113821016Y-102205723D01*
X114273986Y-102393349D01*
X114754855Y-102489000D01*
X115245145Y-102489000D01*
X115726014Y-102393349D01*
X116178984Y-102205723D01*
X116586645Y-101933332D01*
X116933332Y-101586645D01*
X117205723Y-101178984D01*
X117393349Y-100726014D01*
X117489000Y-100245145D01*
X117489000Y-99754855D01*
X117393349Y-99273986D01*
X117205723Y-98821016D01*
X116933332Y-98413355D01*
X116586645Y-98066668D01*
X116178984Y-97794277D01*
X115726014Y-97606651D01*
X115245145Y-97511000D01*
X114754855Y-97511000D01*
X114273986Y-97606651D01*
X113821016Y-97794277D01*
X113413355Y-98066668D01*
X113066668Y-98413355D01*
X112794277Y-98821016D01*
X112606651Y-99273986D01*
X112511000Y-99754855D01*
X110964000Y-99754855D01*
X110964000Y-86487000D01*
X114550928Y-86487000D01*
X114554000Y-87090250D01*
X114712750Y-87249000D01*
X116205000Y-87249000D01*
X116205000Y-86010750D01*
X116459000Y-86010750D01*
X116459000Y-87249000D01*
X117951250Y-87249000D01*
X118110000Y-87090250D01*
X118113072Y-86487000D01*
X118100812Y-86362518D01*
X118064502Y-86242820D01*
X118005537Y-86132506D01*
X117926185Y-86035815D01*
X117829494Y-85956463D01*
X117719180Y-85897498D01*
X117599482Y-85861188D01*
X117475000Y-85848928D01*
X116617750Y-85852000D01*
X116459000Y-86010750D01*
X116205000Y-86010750D01*
X116046250Y-85852000D01*
X115189000Y-85848928D01*
X115064518Y-85861188D01*
X114944820Y-85897498D01*
X114834506Y-85956463D01*
X114737815Y-86035815D01*
X114658463Y-86132506D01*
X114599498Y-86242820D01*
X114563188Y-86362518D01*
X114550928Y-86487000D01*
X110964000Y-86487000D01*
X110964000Y-79754855D01*
X112511000Y-79754855D01*
X112511000Y-80245145D01*
X112606651Y-80726014D01*
X112794277Y-81178984D01*
X113066668Y-81586645D01*
X113413355Y-81933332D01*
X113821016Y-82205723D01*
X114273986Y-82393349D01*
X114754855Y-82489000D01*
X115245145Y-82489000D01*
X115726014Y-82393349D01*
X116178984Y-82205723D01*
X116586645Y-81933332D01*
X116933332Y-81586645D01*
X117205723Y-81178984D01*
X117393349Y-80726014D01*
X117489000Y-80245145D01*
X117489000Y-79754855D01*
X117393349Y-79273986D01*
X117205723Y-78821016D01*
X116933332Y-78413355D01*
X116586645Y-78066668D01*
X116178984Y-77794277D01*
X115726014Y-77606651D01*
X115245145Y-77511000D01*
X114754855Y-77511000D01*
X114273986Y-77606651D01*
X113821016Y-77794277D01*
X113413355Y-78066668D01*
X113066668Y-78413355D01*
X112794277Y-78821016D01*
X112606651Y-79273986D01*
X112511000Y-79754855D01*
X110964000Y-79754855D01*
X110964000Y-75964000D01*
X139036000Y-75964000D01*
X139036001Y-104036000D01*
%TA.AperFunction,Conductor*%
D18*
G36*
X139036001Y-104036000D02*
G01*
X123502474Y-104036000D01*
X123653941Y-103990053D01*
X123863538Y-103878021D01*
X124047252Y-103727252D01*
X124085034Y-103681214D01*
X125271220Y-102495029D01*
X125317252Y-102457252D01*
X125468021Y-102273538D01*
X125580053Y-102063941D01*
X125649042Y-101836515D01*
X125666500Y-101659263D01*
X125666500Y-101659262D01*
X125672337Y-101600001D01*
X125666500Y-101540740D01*
X125666500Y-100901500D01*
X127420034Y-100901500D01*
X127425290Y-100909366D01*
X127690634Y-101174710D01*
X128002644Y-101383189D01*
X128349332Y-101526791D01*
X128717374Y-101600000D01*
X129092626Y-101600000D01*
X129460668Y-101526791D01*
X129807356Y-101383189D01*
X130119366Y-101174710D01*
X130384710Y-100909366D01*
X130593189Y-100597356D01*
X130736791Y-100250668D01*
X130810000Y-99882626D01*
X130810000Y-99754855D01*
X132511000Y-99754855D01*
X132511000Y-100245145D01*
X132606651Y-100726014D01*
X132794277Y-101178984D01*
X133066668Y-101586645D01*
X133413355Y-101933332D01*
X133821016Y-102205723D01*
X134273986Y-102393349D01*
X134754855Y-102489000D01*
X135245145Y-102489000D01*
X135726014Y-102393349D01*
X136178984Y-102205723D01*
X136586645Y-101933332D01*
X136933332Y-101586645D01*
X137205723Y-101178984D01*
X137393349Y-100726014D01*
X137489000Y-100245145D01*
X137489000Y-99754855D01*
X137393349Y-99273986D01*
X137205723Y-98821016D01*
X136933332Y-98413355D01*
X136586645Y-98066668D01*
X136178984Y-97794277D01*
X135726014Y-97606651D01*
X135245145Y-97511000D01*
X134754855Y-97511000D01*
X134273986Y-97606651D01*
X133821016Y-97794277D01*
X133413355Y-98066668D01*
X133066668Y-98413355D01*
X132794277Y-98821016D01*
X132606651Y-99273986D01*
X132511000Y-99754855D01*
X130810000Y-99754855D01*
X130810000Y-99507374D01*
X130736791Y-99139332D01*
X130593189Y-98792644D01*
X130384710Y-98480634D01*
X130119366Y-98215290D01*
X129807356Y-98006811D01*
X129460668Y-97863209D01*
X129092626Y-97790000D01*
X128717374Y-97790000D01*
X128349332Y-97863209D01*
X128002644Y-98006811D01*
X127690634Y-98215290D01*
X127425290Y-98480634D01*
X127420034Y-98488500D01*
X125666500Y-98488500D01*
X125666500Y-94179362D01*
X125839398Y-93968684D01*
X125886834Y-93879937D01*
X125974151Y-93995285D01*
X126178864Y-94177197D01*
X126415132Y-94315676D01*
X126656930Y-94401220D01*
X126872998Y-94278721D01*
X126872998Y-94345749D01*
X126844378Y-94414844D01*
X126791000Y-94683195D01*
X126791000Y-94956805D01*
X126844378Y-95225156D01*
X126949084Y-95477938D01*
X127101093Y-95705436D01*
X127294564Y-95898907D01*
X127522062Y-96050916D01*
X127774844Y-96155622D01*
X128043195Y-96209000D01*
X128316805Y-96209000D01*
X128585156Y-96155622D01*
X128837938Y-96050916D01*
X129065436Y-95898907D01*
X129258907Y-95705436D01*
X129410916Y-95477938D01*
X129515622Y-95225156D01*
X129569000Y-94956805D01*
X129569000Y-94683195D01*
X129515622Y-94414844D01*
X129410916Y-94162062D01*
X129258907Y-93934564D01*
X129065436Y-93741093D01*
X128837938Y-93589084D01*
X128585156Y-93484378D01*
X128335647Y-93434748D01*
X128379801Y-93265539D01*
X128238250Y-93047000D01*
X127127000Y-93047000D01*
X127127000Y-93067000D01*
X126873000Y-93067000D01*
X126873000Y-93047000D01*
X126853000Y-93047000D01*
X126853000Y-92793000D01*
X126873000Y-92793000D01*
X126873000Y-92773000D01*
X127127000Y-92773000D01*
X127127000Y-92793000D01*
X128238250Y-92793000D01*
X128379801Y-92574461D01*
X128310654Y-92309474D01*
X128267772Y-92221064D01*
X128643197Y-92065557D01*
X128993533Y-91831470D01*
X129291470Y-91533533D01*
X129525557Y-91183197D01*
X129686800Y-90793923D01*
X129769000Y-90380673D01*
X129769000Y-89959327D01*
X129686800Y-89546077D01*
X129525557Y-89156803D01*
X129291470Y-88806467D01*
X128993533Y-88508530D01*
X128643197Y-88274443D01*
X128267772Y-88118936D01*
X128310654Y-88030526D01*
X128379801Y-87765539D01*
X128238250Y-87547000D01*
X127127000Y-87547000D01*
X127127000Y-87567000D01*
X126873000Y-87567000D01*
X126873000Y-87547000D01*
X126853000Y-87547000D01*
X126853000Y-87293000D01*
X126873000Y-87293000D01*
X126873000Y-86061280D01*
X127127000Y-86061280D01*
X127127000Y-87293000D01*
X128238250Y-87293000D01*
X128379801Y-87074461D01*
X128310654Y-86809474D01*
X128191139Y-86563069D01*
X128025849Y-86344715D01*
X127874570Y-86210285D01*
X132576000Y-86210285D01*
X132576000Y-92859714D01*
X136904000Y-92859714D01*
X136904000Y-86210285D01*
X132576000Y-86210285D01*
X127874570Y-86210285D01*
X127821136Y-86162803D01*
X127584868Y-86024324D01*
X127343070Y-85938780D01*
X127127000Y-86061280D01*
X126873000Y-86061280D01*
X126656930Y-85938780D01*
X126415132Y-86024324D01*
X126178864Y-86162803D01*
X125974151Y-86344715D01*
X125886834Y-86460063D01*
X125839398Y-86371316D01*
X125666500Y-86160638D01*
X125666500Y-81144748D01*
X126229749Y-80581500D01*
X127420034Y-80581500D01*
X127425290Y-80589366D01*
X127690634Y-80854710D01*
X128002644Y-81063189D01*
X128349332Y-81206791D01*
X128717374Y-81280000D01*
X129092626Y-81280000D01*
X129460668Y-81206791D01*
X129807356Y-81063189D01*
X130119366Y-80854710D01*
X130384710Y-80589366D01*
X130593189Y-80277356D01*
X130736791Y-79930668D01*
X130771762Y-79754855D01*
X132511000Y-79754855D01*
X132511000Y-80245145D01*
X132606651Y-80726014D01*
X132794277Y-81178984D01*
X133066668Y-81586645D01*
X133413355Y-81933332D01*
X133821016Y-82205723D01*
X134273986Y-82393349D01*
X134754855Y-82489000D01*
X135245145Y-82489000D01*
X135726014Y-82393349D01*
X136178984Y-82205723D01*
X136586645Y-81933332D01*
X136933332Y-81586645D01*
X137205723Y-81178984D01*
X137393349Y-80726014D01*
X137489000Y-80245145D01*
X137489000Y-79754855D01*
X137393349Y-79273986D01*
X137205723Y-78821016D01*
X136933332Y-78413355D01*
X136586645Y-78066668D01*
X136178984Y-77794277D01*
X135726014Y-77606651D01*
X135245145Y-77511000D01*
X134754855Y-77511000D01*
X134273986Y-77606651D01*
X133821016Y-77794277D01*
X133413355Y-78066668D01*
X133066668Y-78413355D01*
X132794277Y-78821016D01*
X132606651Y-79273986D01*
X132511000Y-79754855D01*
X130771762Y-79754855D01*
X130810000Y-79562626D01*
X130810000Y-79187374D01*
X130736791Y-78819332D01*
X130593189Y-78472644D01*
X130384710Y-78160634D01*
X130119366Y-77895290D01*
X129807356Y-77686811D01*
X129460668Y-77543209D01*
X129092626Y-77470000D01*
X128717374Y-77470000D01*
X128349332Y-77543209D01*
X128002644Y-77686811D01*
X127690634Y-77895290D01*
X127425290Y-78160634D01*
X127420034Y-78168500D01*
X125789260Y-78168500D01*
X125729999Y-78162663D01*
X125670738Y-78168500D01*
X125670737Y-78168500D01*
X125493485Y-78185958D01*
X125266059Y-78254947D01*
X125056462Y-78366979D01*
X124872748Y-78517748D01*
X124834970Y-78563781D01*
X123648782Y-79749970D01*
X123602749Y-79787748D01*
X123564971Y-79833781D01*
X123451979Y-79971462D01*
X123339948Y-80181059D01*
X123270959Y-80408485D01*
X123247663Y-80645000D01*
X123253501Y-80704271D01*
X123253500Y-86160638D01*
X123080602Y-86371317D01*
X122927295Y-86658134D01*
X122832889Y-86969348D01*
X122809000Y-87211897D01*
X122809000Y-87628104D01*
X122832889Y-87870653D01*
X122927295Y-88181867D01*
X122947779Y-88220191D01*
X122816803Y-88274443D01*
X122491500Y-88491803D01*
X122491500Y-80859966D01*
X122499366Y-80854710D01*
X122764710Y-80589366D01*
X122973189Y-80277356D01*
X123116791Y-79930668D01*
X123190000Y-79562626D01*
X123190000Y-79187374D01*
X123116791Y-78819332D01*
X122973189Y-78472644D01*
X122764710Y-78160634D01*
X122499366Y-77895290D01*
X122187356Y-77686811D01*
X121840668Y-77543209D01*
X121472626Y-77470000D01*
X121097374Y-77470000D01*
X120729332Y-77543209D01*
X120382644Y-77686811D01*
X120070634Y-77895290D01*
X119805290Y-78160634D01*
X119596811Y-78472644D01*
X119453209Y-78819332D01*
X119380000Y-79187374D01*
X119380000Y-79562626D01*
X119453209Y-79930668D01*
X119596811Y-80277356D01*
X119805290Y-80589366D01*
X120070634Y-80854710D01*
X120078501Y-80859966D01*
X120078500Y-88709500D01*
X117931671Y-88709500D01*
X118005537Y-88619494D01*
X118064502Y-88509180D01*
X118100812Y-88389482D01*
X118113072Y-88265000D01*
X118110000Y-87661750D01*
X117951250Y-87503000D01*
X116459000Y-87503000D01*
X116459000Y-87523000D01*
X116205000Y-87523000D01*
X116205000Y-87503000D01*
X114712750Y-87503000D01*
X114554000Y-87661750D01*
X114550928Y-88265000D01*
X114563188Y-88389482D01*
X114599498Y-88509180D01*
X114658463Y-88619494D01*
X114737815Y-88716185D01*
X114752605Y-88728323D01*
X114592495Y-88923417D01*
X114427395Y-89232297D01*
X114325727Y-89567451D01*
X114291398Y-89916000D01*
X114325727Y-90264549D01*
X114427395Y-90599703D01*
X114592495Y-90908583D01*
X114814682Y-91179318D01*
X114822824Y-91186000D01*
X114814682Y-91192682D01*
X114592495Y-91463417D01*
X114427395Y-91772297D01*
X114325727Y-92107451D01*
X114291398Y-92456000D01*
X114325727Y-92804549D01*
X114427395Y-93139703D01*
X114592495Y-93448583D01*
X114814682Y-93719318D01*
X115085417Y-93941505D01*
X115394297Y-94106605D01*
X115729451Y-94208273D01*
X115990662Y-94234000D01*
X116673338Y-94234000D01*
X116934549Y-94208273D01*
X117269703Y-94106605D01*
X117578583Y-93941505D01*
X117609711Y-93915959D01*
X118173500Y-94479749D01*
X118173501Y-102175729D01*
X118167663Y-102235000D01*
X118190959Y-102471515D01*
X118259948Y-102698941D01*
X118371979Y-102908538D01*
X118483823Y-103044821D01*
X118522749Y-103092252D01*
X118568783Y-103130031D01*
X119119961Y-103681208D01*
X119157748Y-103727252D01*
X119341462Y-103878021D01*
X119551059Y-103990053D01*
X119702526Y-104036000D01*
X110964000Y-104036000D01*
X110964000Y-99754855D01*
X112511000Y-99754855D01*
X112511000Y-100245145D01*
X112606651Y-100726014D01*
X112794277Y-101178984D01*
X113066668Y-101586645D01*
X113413355Y-101933332D01*
X113821016Y-102205723D01*
X114273986Y-102393349D01*
X114754855Y-102489000D01*
X115245145Y-102489000D01*
X115726014Y-102393349D01*
X116178984Y-102205723D01*
X116586645Y-101933332D01*
X116933332Y-101586645D01*
X117205723Y-101178984D01*
X117393349Y-100726014D01*
X117489000Y-100245145D01*
X117489000Y-99754855D01*
X117393349Y-99273986D01*
X117205723Y-98821016D01*
X116933332Y-98413355D01*
X116586645Y-98066668D01*
X116178984Y-97794277D01*
X115726014Y-97606651D01*
X115245145Y-97511000D01*
X114754855Y-97511000D01*
X114273986Y-97606651D01*
X113821016Y-97794277D01*
X113413355Y-98066668D01*
X113066668Y-98413355D01*
X112794277Y-98821016D01*
X112606651Y-99273986D01*
X112511000Y-99754855D01*
X110964000Y-99754855D01*
X110964000Y-86487000D01*
X114550928Y-86487000D01*
X114554000Y-87090250D01*
X114712750Y-87249000D01*
X116205000Y-87249000D01*
X116205000Y-86010750D01*
X116459000Y-86010750D01*
X116459000Y-87249000D01*
X117951250Y-87249000D01*
X118110000Y-87090250D01*
X118113072Y-86487000D01*
X118100812Y-86362518D01*
X118064502Y-86242820D01*
X118005537Y-86132506D01*
X117926185Y-86035815D01*
X117829494Y-85956463D01*
X117719180Y-85897498D01*
X117599482Y-85861188D01*
X117475000Y-85848928D01*
X116617750Y-85852000D01*
X116459000Y-86010750D01*
X116205000Y-86010750D01*
X116046250Y-85852000D01*
X115189000Y-85848928D01*
X115064518Y-85861188D01*
X114944820Y-85897498D01*
X114834506Y-85956463D01*
X114737815Y-86035815D01*
X114658463Y-86132506D01*
X114599498Y-86242820D01*
X114563188Y-86362518D01*
X114550928Y-86487000D01*
X110964000Y-86487000D01*
X110964000Y-79754855D01*
X112511000Y-79754855D01*
X112511000Y-80245145D01*
X112606651Y-80726014D01*
X112794277Y-81178984D01*
X113066668Y-81586645D01*
X113413355Y-81933332D01*
X113821016Y-82205723D01*
X114273986Y-82393349D01*
X114754855Y-82489000D01*
X115245145Y-82489000D01*
X115726014Y-82393349D01*
X116178984Y-82205723D01*
X116586645Y-81933332D01*
X116933332Y-81586645D01*
X117205723Y-81178984D01*
X117393349Y-80726014D01*
X117489000Y-80245145D01*
X117489000Y-79754855D01*
X117393349Y-79273986D01*
X117205723Y-78821016D01*
X116933332Y-78413355D01*
X116586645Y-78066668D01*
X116178984Y-77794277D01*
X115726014Y-77606651D01*
X115245145Y-77511000D01*
X114754855Y-77511000D01*
X114273986Y-77606651D01*
X113821016Y-77794277D01*
X113413355Y-78066668D01*
X113066668Y-78413355D01*
X112794277Y-78821016D01*
X112606651Y-79273986D01*
X112511000Y-79754855D01*
X110964000Y-79754855D01*
X110964000Y-75964000D01*
X139036000Y-75964000D01*
X139036001Y-104036000D01*
G37*
%TD.AperFunction*%
%TD*%
M02*
