G04 #@! TF.FileFunction,Copper,L2,Bot,Signal*
%FSLAX46Y46*%
G04 Gerber Fmt 4.6, Leading zero omitted, Abs format (unit mm)*
G04 Created by KiCad (PCBNEW 4.0.4-stable) date 03/07/20 13:15:27*
%MOMM*%
%LPD*%
G01*
G04 APERTURE LIST*
%ADD10C,0.100000*%
%ADD11C,0.300000*%
%ADD12R,1.800000X1.800000*%
%ADD13C,1.800000*%
%ADD14C,1.400000*%
%ADD15O,1.400000X1.400000*%
%ADD16R,1.700000X1.700000*%
%ADD17O,1.700000X1.700000*%
%ADD18C,0.635000*%
%ADD19C,0.254000*%
G04 APERTURE END LIST*
D10*
D11*
X109392857Y-73535714D02*
X109392857Y-74035714D01*
X110178571Y-74250000D02*
X110178571Y-73535714D01*
X108678571Y-73535714D01*
X108678571Y-74250000D01*
X110178571Y-74892857D02*
X108678571Y-74892857D01*
X108678571Y-75250000D01*
X108750000Y-75464285D01*
X108892857Y-75607143D01*
X109035714Y-75678571D01*
X109321429Y-75750000D01*
X109535714Y-75750000D01*
X109821429Y-75678571D01*
X109964286Y-75607143D01*
X110107143Y-75464285D01*
X110178571Y-75250000D01*
X110178571Y-74892857D01*
X108678571Y-76392857D02*
X109892857Y-76392857D01*
X110035714Y-76464285D01*
X110107143Y-76535714D01*
X110178571Y-76678571D01*
X110178571Y-76964285D01*
X110107143Y-77107143D01*
X110035714Y-77178571D01*
X109892857Y-77250000D01*
X108678571Y-77250000D01*
X109392857Y-78464286D02*
X109464286Y-78678572D01*
X109535714Y-78750000D01*
X109678571Y-78821429D01*
X109892857Y-78821429D01*
X110035714Y-78750000D01*
X110107143Y-78678572D01*
X110178571Y-78535714D01*
X110178571Y-77964286D01*
X108678571Y-77964286D01*
X108678571Y-78464286D01*
X108750000Y-78607143D01*
X108821429Y-78678572D01*
X108964286Y-78750000D01*
X109107143Y-78750000D01*
X109250000Y-78678572D01*
X109321429Y-78607143D01*
X109392857Y-78464286D01*
X109392857Y-77964286D01*
X108678571Y-79750000D02*
X108678571Y-80035714D01*
X108750000Y-80178572D01*
X108892857Y-80321429D01*
X109178571Y-80392857D01*
X109678571Y-80392857D01*
X109964286Y-80321429D01*
X110107143Y-80178572D01*
X110178571Y-80035714D01*
X110178571Y-79750000D01*
X110107143Y-79607143D01*
X109964286Y-79464286D01*
X109678571Y-79392857D01*
X109178571Y-79392857D01*
X108892857Y-79464286D01*
X108750000Y-79607143D01*
X108678571Y-79750000D01*
X108678571Y-80821429D02*
X108678571Y-81678572D01*
X110178571Y-81250001D02*
X108678571Y-81250001D01*
D12*
X146000000Y-79000000D03*
D13*
X146000000Y-76460000D03*
D12*
X168500000Y-79000000D03*
D13*
X168500000Y-76460000D03*
D12*
X123500000Y-79000000D03*
D13*
X123500000Y-76460000D03*
D14*
X132000000Y-72000000D03*
D15*
X137080000Y-72000000D03*
D14*
X153000000Y-80000000D03*
D15*
X153000000Y-74920000D03*
D14*
X137000000Y-83000000D03*
D15*
X131920000Y-83000000D03*
D16*
X115000000Y-75000000D03*
D17*
X115000000Y-77540000D03*
X115000000Y-80080000D03*
D16*
X177000000Y-80000000D03*
D17*
X177000000Y-77460000D03*
X177000000Y-74920000D03*
D18*
X137080000Y-72000000D02*
X145000000Y-72000000D01*
X146000000Y-73000000D02*
X146000000Y-76460000D01*
X145000000Y-72000000D02*
X146000000Y-73000000D01*
X153000000Y-74920000D02*
X153000000Y-73000000D01*
X168500000Y-73000000D02*
X168500000Y-76460000D01*
X167500000Y-72000000D02*
X168500000Y-73000000D01*
X154000000Y-72000000D02*
X167500000Y-72000000D01*
X153000000Y-73000000D02*
X154000000Y-72000000D01*
X131920000Y-83000000D02*
X128500000Y-83000000D01*
X126500000Y-76500000D02*
X123540000Y-76500000D01*
X127500000Y-77500000D02*
X126500000Y-76500000D01*
X127500000Y-82000000D02*
X127500000Y-77500000D01*
X128500000Y-83000000D02*
X127500000Y-82000000D01*
X123540000Y-76500000D02*
X123500000Y-76460000D01*
X115000000Y-75000000D02*
X117500000Y-75000000D01*
X120500000Y-72000000D02*
X132000000Y-72000000D01*
X117500000Y-75000000D02*
X120500000Y-72000000D01*
X153000000Y-83000000D02*
X139500000Y-83000000D01*
X138000000Y-83000000D02*
X137000000Y-83000000D01*
X139500000Y-83000000D02*
X138000000Y-83000000D01*
X177000000Y-80000000D02*
X175000000Y-80000000D01*
X153000000Y-83000000D02*
X153000000Y-80000000D01*
X171500000Y-83000000D02*
X153000000Y-83000000D01*
X175000000Y-80000000D02*
X171500000Y-83000000D01*
D19*
G36*
X131244771Y-70867582D02*
X131064539Y-71047500D01*
X120500000Y-71047500D01*
X120135494Y-71120005D01*
X119826481Y-71326481D01*
X117105462Y-74047500D01*
X116478153Y-74047500D01*
X116453162Y-73914683D01*
X116314090Y-73698559D01*
X116101890Y-73553569D01*
X115850000Y-73502560D01*
X114150000Y-73502560D01*
X113914683Y-73546838D01*
X113698559Y-73685910D01*
X113553569Y-73898110D01*
X113502560Y-74150000D01*
X113502560Y-75850000D01*
X113546838Y-76085317D01*
X113685910Y-76301441D01*
X113898110Y-76446431D01*
X113965541Y-76460086D01*
X113920853Y-76489946D01*
X113598946Y-76971715D01*
X113485907Y-77540000D01*
X113598946Y-78108285D01*
X113920853Y-78590054D01*
X114261553Y-78817702D01*
X114118642Y-78884817D01*
X113728355Y-79313076D01*
X113558524Y-79723110D01*
X113679845Y-79953000D01*
X114873000Y-79953000D01*
X114873000Y-79933000D01*
X115127000Y-79933000D01*
X115127000Y-79953000D01*
X116320155Y-79953000D01*
X116441476Y-79723110D01*
X116271645Y-79313076D01*
X116246742Y-79285750D01*
X121965000Y-79285750D01*
X121965000Y-80026309D01*
X122061673Y-80259698D01*
X122240301Y-80438327D01*
X122473690Y-80535000D01*
X123214250Y-80535000D01*
X123373000Y-80376250D01*
X123373000Y-79127000D01*
X123627000Y-79127000D01*
X123627000Y-80376250D01*
X123785750Y-80535000D01*
X124526310Y-80535000D01*
X124759699Y-80438327D01*
X124938327Y-80259698D01*
X125035000Y-80026309D01*
X125035000Y-79285750D01*
X124876250Y-79127000D01*
X123627000Y-79127000D01*
X123373000Y-79127000D01*
X122123750Y-79127000D01*
X121965000Y-79285750D01*
X116246742Y-79285750D01*
X115881358Y-78884817D01*
X115738447Y-78817702D01*
X116079147Y-78590054D01*
X116401054Y-78108285D01*
X116514093Y-77540000D01*
X116401054Y-76971715D01*
X116079147Y-76489946D01*
X116037548Y-76462150D01*
X116085317Y-76453162D01*
X116301441Y-76314090D01*
X116446431Y-76101890D01*
X116476683Y-75952500D01*
X117500000Y-75952500D01*
X117864506Y-75879995D01*
X118173519Y-75673519D01*
X120894538Y-72952500D01*
X131064509Y-72952500D01*
X131242796Y-73131098D01*
X131733287Y-73334768D01*
X132264383Y-73335231D01*
X132755229Y-73132418D01*
X133131098Y-72757204D01*
X133334768Y-72266713D01*
X133335231Y-71735617D01*
X133132418Y-71244771D01*
X132757204Y-70868902D01*
X132374526Y-70710000D01*
X136827616Y-70710000D01*
X136542964Y-70766621D01*
X136109858Y-71056012D01*
X135820467Y-71489118D01*
X135718846Y-72000000D01*
X135820467Y-72510882D01*
X136109858Y-72943988D01*
X136542964Y-73233379D01*
X137053846Y-73335000D01*
X137106154Y-73335000D01*
X137617036Y-73233379D01*
X138037403Y-72952500D01*
X144605462Y-72952500D01*
X145047500Y-73394539D01*
X145047500Y-75241914D01*
X144699449Y-75589357D01*
X144465267Y-76153330D01*
X144464735Y-76763991D01*
X144697932Y-77328371D01*
X144875092Y-77505841D01*
X144740301Y-77561673D01*
X144561673Y-77740302D01*
X144465000Y-77973691D01*
X144465000Y-78714250D01*
X144623750Y-78873000D01*
X145873000Y-78873000D01*
X145873000Y-78853000D01*
X146127000Y-78853000D01*
X146127000Y-78873000D01*
X147376250Y-78873000D01*
X147535000Y-78714250D01*
X147535000Y-77973691D01*
X147438327Y-77740302D01*
X147259699Y-77561673D01*
X147125006Y-77505881D01*
X147130897Y-77500000D01*
X156208861Y-77500000D01*
X156264754Y-77780993D01*
X156264613Y-77942619D01*
X156326879Y-78093313D01*
X156383264Y-78376781D01*
X156542434Y-78614996D01*
X156604155Y-78764372D01*
X156719347Y-78879766D01*
X156879920Y-79120080D01*
X157118134Y-79279249D01*
X157232321Y-79393636D01*
X157382906Y-79456164D01*
X157623219Y-79616736D01*
X157904212Y-79672629D01*
X158053481Y-79734611D01*
X158216531Y-79734753D01*
X158500000Y-79791139D01*
X158780993Y-79735246D01*
X158942619Y-79735387D01*
X159093313Y-79673121D01*
X159376781Y-79616736D01*
X159614996Y-79457566D01*
X159764372Y-79395845D01*
X159874660Y-79285750D01*
X166965000Y-79285750D01*
X166965000Y-80026309D01*
X167061673Y-80259698D01*
X167240301Y-80438327D01*
X167473690Y-80535000D01*
X168214250Y-80535000D01*
X168373000Y-80376250D01*
X168373000Y-79127000D01*
X168627000Y-79127000D01*
X168627000Y-80376250D01*
X168785750Y-80535000D01*
X169526310Y-80535000D01*
X169759699Y-80438327D01*
X169938327Y-80259698D01*
X170035000Y-80026309D01*
X170035000Y-79285750D01*
X169876250Y-79127000D01*
X168627000Y-79127000D01*
X168373000Y-79127000D01*
X167123750Y-79127000D01*
X166965000Y-79285750D01*
X159874660Y-79285750D01*
X159879766Y-79280653D01*
X160120080Y-79120080D01*
X160279249Y-78881866D01*
X160393636Y-78767679D01*
X160456164Y-78617094D01*
X160616736Y-78376781D01*
X160672629Y-78095788D01*
X160734611Y-77946519D01*
X160734753Y-77783469D01*
X160791139Y-77500000D01*
X160735246Y-77219007D01*
X160735387Y-77057381D01*
X160673121Y-76906687D01*
X160616736Y-76623219D01*
X160457566Y-76385004D01*
X160395845Y-76235628D01*
X160280653Y-76120234D01*
X160120080Y-75879920D01*
X159881866Y-75720751D01*
X159767679Y-75606364D01*
X159617094Y-75543836D01*
X159376781Y-75383264D01*
X159095788Y-75327371D01*
X158946519Y-75265389D01*
X158783469Y-75265247D01*
X158500000Y-75208861D01*
X158219007Y-75264754D01*
X158057381Y-75264613D01*
X157906687Y-75326879D01*
X157623219Y-75383264D01*
X157385004Y-75542434D01*
X157235628Y-75604155D01*
X157120234Y-75719347D01*
X156879920Y-75879920D01*
X156720751Y-76118134D01*
X156606364Y-76232321D01*
X156543836Y-76382906D01*
X156383264Y-76623219D01*
X156327371Y-76904212D01*
X156265389Y-77053481D01*
X156265247Y-77216531D01*
X156208861Y-77500000D01*
X147130897Y-77500000D01*
X147300551Y-77330643D01*
X147534733Y-76766670D01*
X147535265Y-76156009D01*
X147302068Y-75591629D01*
X146952500Y-75241449D01*
X146952500Y-74893846D01*
X151665000Y-74893846D01*
X151665000Y-74946154D01*
X151766621Y-75457036D01*
X152056012Y-75890142D01*
X152489118Y-76179533D01*
X153000000Y-76281154D01*
X153510882Y-76179533D01*
X153943988Y-75890142D01*
X154233379Y-75457036D01*
X154335000Y-74946154D01*
X154335000Y-74893846D01*
X154233379Y-74382964D01*
X153952500Y-73962597D01*
X153952500Y-73394538D01*
X154394539Y-72952500D01*
X167105462Y-72952500D01*
X167547500Y-73394539D01*
X167547500Y-75241914D01*
X167199449Y-75589357D01*
X166965267Y-76153330D01*
X166964735Y-76763991D01*
X167197932Y-77328371D01*
X167375092Y-77505841D01*
X167240301Y-77561673D01*
X167061673Y-77740302D01*
X166965000Y-77973691D01*
X166965000Y-78714250D01*
X167123750Y-78873000D01*
X168373000Y-78873000D01*
X168373000Y-78853000D01*
X168627000Y-78853000D01*
X168627000Y-78873000D01*
X169876250Y-78873000D01*
X170035000Y-78714250D01*
X170035000Y-77973691D01*
X169938327Y-77740302D01*
X169759699Y-77561673D01*
X169625006Y-77505881D01*
X169800551Y-77330643D01*
X170034733Y-76766670D01*
X170035265Y-76156009D01*
X169802068Y-75591629D01*
X169452500Y-75241449D01*
X169452500Y-74563110D01*
X175558524Y-74563110D01*
X175679845Y-74793000D01*
X176873000Y-74793000D01*
X176873000Y-73599181D01*
X177127000Y-73599181D01*
X177127000Y-74793000D01*
X178320155Y-74793000D01*
X178441476Y-74563110D01*
X178271645Y-74153076D01*
X177881358Y-73724817D01*
X177356892Y-73478514D01*
X177127000Y-73599181D01*
X176873000Y-73599181D01*
X176643108Y-73478514D01*
X176118642Y-73724817D01*
X175728355Y-74153076D01*
X175558524Y-74563110D01*
X169452500Y-74563110D01*
X169452500Y-73000000D01*
X169379995Y-72635494D01*
X169198927Y-72364506D01*
X169173520Y-72326481D01*
X168173519Y-71326481D01*
X167864506Y-71120005D01*
X167500000Y-71047500D01*
X154000000Y-71047500D01*
X153635494Y-71120005D01*
X153511721Y-71202707D01*
X153326481Y-71326480D01*
X152326481Y-72326481D01*
X152120005Y-72635494D01*
X152047500Y-73000000D01*
X152047500Y-73962597D01*
X151766621Y-74382964D01*
X151665000Y-74893846D01*
X146952500Y-74893846D01*
X146952500Y-73000000D01*
X146879995Y-72635494D01*
X146698927Y-72364506D01*
X146673520Y-72326481D01*
X145673519Y-71326481D01*
X145364506Y-71120005D01*
X145000000Y-71047500D01*
X138037403Y-71047500D01*
X137617036Y-70766621D01*
X137332384Y-70710000D01*
X186790000Y-70710000D01*
X186790000Y-84290000D01*
X137373851Y-84290000D01*
X137755229Y-84132418D01*
X137935461Y-83952500D01*
X171500000Y-83952500D01*
X171647069Y-83923246D01*
X171795940Y-83905359D01*
X171828202Y-83887216D01*
X171864506Y-83879995D01*
X171989179Y-83796691D01*
X172119879Y-83723192D01*
X175352353Y-80952500D01*
X175521847Y-80952500D01*
X175546838Y-81085317D01*
X175685910Y-81301441D01*
X175898110Y-81446431D01*
X176150000Y-81497440D01*
X177850000Y-81497440D01*
X178085317Y-81453162D01*
X178301441Y-81314090D01*
X178446431Y-81101890D01*
X178497440Y-80850000D01*
X178497440Y-79150000D01*
X178453162Y-78914683D01*
X178314090Y-78698559D01*
X178101890Y-78553569D01*
X178034459Y-78539914D01*
X178079147Y-78510054D01*
X178401054Y-78028285D01*
X178514093Y-77460000D01*
X178401054Y-76891715D01*
X178079147Y-76409946D01*
X177738447Y-76182298D01*
X177881358Y-76115183D01*
X178271645Y-75686924D01*
X178441476Y-75276890D01*
X178320155Y-75047000D01*
X177127000Y-75047000D01*
X177127000Y-75067000D01*
X176873000Y-75067000D01*
X176873000Y-75047000D01*
X175679845Y-75047000D01*
X175558524Y-75276890D01*
X175728355Y-75686924D01*
X176118642Y-76115183D01*
X176261553Y-76182298D01*
X175920853Y-76409946D01*
X175598946Y-76891715D01*
X175485907Y-77460000D01*
X175598946Y-78028285D01*
X175920853Y-78510054D01*
X175962452Y-78537850D01*
X175914683Y-78546838D01*
X175698559Y-78685910D01*
X175553569Y-78898110D01*
X175523317Y-79047500D01*
X175000000Y-79047500D01*
X174852931Y-79076754D01*
X174704060Y-79094641D01*
X174671798Y-79112784D01*
X174635494Y-79120005D01*
X174510821Y-79203309D01*
X174380121Y-79276808D01*
X171147647Y-82047500D01*
X153952500Y-82047500D01*
X153952500Y-80935491D01*
X154131098Y-80757204D01*
X154334768Y-80266713D01*
X154335231Y-79735617D01*
X154132418Y-79244771D01*
X153757204Y-78868902D01*
X153266713Y-78665232D01*
X152735617Y-78664769D01*
X152244771Y-78867582D01*
X151868902Y-79242796D01*
X151665232Y-79733287D01*
X151664769Y-80264383D01*
X151867582Y-80755229D01*
X152047500Y-80935461D01*
X152047500Y-82047500D01*
X137935491Y-82047500D01*
X137757204Y-81868902D01*
X137266713Y-81665232D01*
X136735617Y-81664769D01*
X136244771Y-81867582D01*
X135868902Y-82242796D01*
X135665232Y-82733287D01*
X135664769Y-83264383D01*
X135867582Y-83755229D01*
X136242796Y-84131098D01*
X136625474Y-84290000D01*
X132172384Y-84290000D01*
X132457036Y-84233379D01*
X132890142Y-83943988D01*
X133179533Y-83510882D01*
X133281154Y-83000000D01*
X133179533Y-82489118D01*
X132890142Y-82056012D01*
X132457036Y-81766621D01*
X131946154Y-81665000D01*
X131893846Y-81665000D01*
X131382964Y-81766621D01*
X130962597Y-82047500D01*
X128894539Y-82047500D01*
X128452500Y-81605462D01*
X128452500Y-77500000D01*
X131208861Y-77500000D01*
X131264754Y-77780993D01*
X131264613Y-77942619D01*
X131326879Y-78093313D01*
X131383264Y-78376781D01*
X131542434Y-78614996D01*
X131604155Y-78764372D01*
X131719347Y-78879766D01*
X131879920Y-79120080D01*
X132118134Y-79279249D01*
X132232321Y-79393636D01*
X132382906Y-79456164D01*
X132623219Y-79616736D01*
X132904212Y-79672629D01*
X133053481Y-79734611D01*
X133216531Y-79734753D01*
X133500000Y-79791139D01*
X133780993Y-79735246D01*
X133942619Y-79735387D01*
X134093313Y-79673121D01*
X134376781Y-79616736D01*
X134614996Y-79457566D01*
X134764372Y-79395845D01*
X134874660Y-79285750D01*
X144465000Y-79285750D01*
X144465000Y-80026309D01*
X144561673Y-80259698D01*
X144740301Y-80438327D01*
X144973690Y-80535000D01*
X145714250Y-80535000D01*
X145873000Y-80376250D01*
X145873000Y-79127000D01*
X146127000Y-79127000D01*
X146127000Y-80376250D01*
X146285750Y-80535000D01*
X147026310Y-80535000D01*
X147259699Y-80438327D01*
X147438327Y-80259698D01*
X147535000Y-80026309D01*
X147535000Y-79285750D01*
X147376250Y-79127000D01*
X146127000Y-79127000D01*
X145873000Y-79127000D01*
X144623750Y-79127000D01*
X144465000Y-79285750D01*
X134874660Y-79285750D01*
X134879766Y-79280653D01*
X135120080Y-79120080D01*
X135279249Y-78881866D01*
X135393636Y-78767679D01*
X135456164Y-78617094D01*
X135616736Y-78376781D01*
X135672629Y-78095788D01*
X135734611Y-77946519D01*
X135734753Y-77783469D01*
X135791139Y-77500000D01*
X135735246Y-77219007D01*
X135735387Y-77057381D01*
X135673121Y-76906687D01*
X135616736Y-76623219D01*
X135457566Y-76385004D01*
X135395845Y-76235628D01*
X135280653Y-76120234D01*
X135120080Y-75879920D01*
X134881866Y-75720751D01*
X134767679Y-75606364D01*
X134617094Y-75543836D01*
X134376781Y-75383264D01*
X134095788Y-75327371D01*
X133946519Y-75265389D01*
X133783469Y-75265247D01*
X133500000Y-75208861D01*
X133219007Y-75264754D01*
X133057381Y-75264613D01*
X132906687Y-75326879D01*
X132623219Y-75383264D01*
X132385004Y-75542434D01*
X132235628Y-75604155D01*
X132120234Y-75719347D01*
X131879920Y-75879920D01*
X131720751Y-76118134D01*
X131606364Y-76232321D01*
X131543836Y-76382906D01*
X131383264Y-76623219D01*
X131327371Y-76904212D01*
X131265389Y-77053481D01*
X131265247Y-77216531D01*
X131208861Y-77500000D01*
X128452500Y-77500000D01*
X128379995Y-77135494D01*
X128297293Y-77011721D01*
X128173520Y-76826481D01*
X127173519Y-75826481D01*
X126864506Y-75620005D01*
X126500000Y-75547500D01*
X124758016Y-75547500D01*
X124370643Y-75159449D01*
X123806670Y-74925267D01*
X123196009Y-74924735D01*
X122631629Y-75157932D01*
X122199449Y-75589357D01*
X121965267Y-76153330D01*
X121964735Y-76763991D01*
X122197932Y-77328371D01*
X122375092Y-77505841D01*
X122240301Y-77561673D01*
X122061673Y-77740302D01*
X121965000Y-77973691D01*
X121965000Y-78714250D01*
X122123750Y-78873000D01*
X123373000Y-78873000D01*
X123373000Y-78853000D01*
X123627000Y-78853000D01*
X123627000Y-78873000D01*
X124876250Y-78873000D01*
X125035000Y-78714250D01*
X125035000Y-77973691D01*
X124938327Y-77740302D01*
X124759699Y-77561673D01*
X124625006Y-77505881D01*
X124678481Y-77452500D01*
X126105462Y-77452500D01*
X126547500Y-77894539D01*
X126547500Y-82000000D01*
X126620005Y-82364506D01*
X126826481Y-82673519D01*
X127826481Y-83673520D01*
X127951724Y-83757204D01*
X128135494Y-83879995D01*
X128500000Y-83952500D01*
X130962597Y-83952500D01*
X131382964Y-84233379D01*
X131667616Y-84290000D01*
X105210000Y-84290000D01*
X105210000Y-72543571D01*
X107665000Y-72543571D01*
X107665000Y-82456429D01*
X111485000Y-82456429D01*
X111485000Y-80436890D01*
X113558524Y-80436890D01*
X113728355Y-80846924D01*
X114118642Y-81275183D01*
X114643108Y-81521486D01*
X114873000Y-81400819D01*
X114873000Y-80207000D01*
X115127000Y-80207000D01*
X115127000Y-81400819D01*
X115356892Y-81521486D01*
X115881358Y-81275183D01*
X116271645Y-80846924D01*
X116441476Y-80436890D01*
X116320155Y-80207000D01*
X115127000Y-80207000D01*
X114873000Y-80207000D01*
X113679845Y-80207000D01*
X113558524Y-80436890D01*
X111485000Y-80436890D01*
X111485000Y-72543571D01*
X107665000Y-72543571D01*
X105210000Y-72543571D01*
X105210000Y-70710000D01*
X131626149Y-70710000D01*
X131244771Y-70867582D01*
X131244771Y-70867582D01*
G37*
X131244771Y-70867582D02*
X131064539Y-71047500D01*
X120500000Y-71047500D01*
X120135494Y-71120005D01*
X119826481Y-71326481D01*
X117105462Y-74047500D01*
X116478153Y-74047500D01*
X116453162Y-73914683D01*
X116314090Y-73698559D01*
X116101890Y-73553569D01*
X115850000Y-73502560D01*
X114150000Y-73502560D01*
X113914683Y-73546838D01*
X113698559Y-73685910D01*
X113553569Y-73898110D01*
X113502560Y-74150000D01*
X113502560Y-75850000D01*
X113546838Y-76085317D01*
X113685910Y-76301441D01*
X113898110Y-76446431D01*
X113965541Y-76460086D01*
X113920853Y-76489946D01*
X113598946Y-76971715D01*
X113485907Y-77540000D01*
X113598946Y-78108285D01*
X113920853Y-78590054D01*
X114261553Y-78817702D01*
X114118642Y-78884817D01*
X113728355Y-79313076D01*
X113558524Y-79723110D01*
X113679845Y-79953000D01*
X114873000Y-79953000D01*
X114873000Y-79933000D01*
X115127000Y-79933000D01*
X115127000Y-79953000D01*
X116320155Y-79953000D01*
X116441476Y-79723110D01*
X116271645Y-79313076D01*
X116246742Y-79285750D01*
X121965000Y-79285750D01*
X121965000Y-80026309D01*
X122061673Y-80259698D01*
X122240301Y-80438327D01*
X122473690Y-80535000D01*
X123214250Y-80535000D01*
X123373000Y-80376250D01*
X123373000Y-79127000D01*
X123627000Y-79127000D01*
X123627000Y-80376250D01*
X123785750Y-80535000D01*
X124526310Y-80535000D01*
X124759699Y-80438327D01*
X124938327Y-80259698D01*
X125035000Y-80026309D01*
X125035000Y-79285750D01*
X124876250Y-79127000D01*
X123627000Y-79127000D01*
X123373000Y-79127000D01*
X122123750Y-79127000D01*
X121965000Y-79285750D01*
X116246742Y-79285750D01*
X115881358Y-78884817D01*
X115738447Y-78817702D01*
X116079147Y-78590054D01*
X116401054Y-78108285D01*
X116514093Y-77540000D01*
X116401054Y-76971715D01*
X116079147Y-76489946D01*
X116037548Y-76462150D01*
X116085317Y-76453162D01*
X116301441Y-76314090D01*
X116446431Y-76101890D01*
X116476683Y-75952500D01*
X117500000Y-75952500D01*
X117864506Y-75879995D01*
X118173519Y-75673519D01*
X120894538Y-72952500D01*
X131064509Y-72952500D01*
X131242796Y-73131098D01*
X131733287Y-73334768D01*
X132264383Y-73335231D01*
X132755229Y-73132418D01*
X133131098Y-72757204D01*
X133334768Y-72266713D01*
X133335231Y-71735617D01*
X133132418Y-71244771D01*
X132757204Y-70868902D01*
X132374526Y-70710000D01*
X136827616Y-70710000D01*
X136542964Y-70766621D01*
X136109858Y-71056012D01*
X135820467Y-71489118D01*
X135718846Y-72000000D01*
X135820467Y-72510882D01*
X136109858Y-72943988D01*
X136542964Y-73233379D01*
X137053846Y-73335000D01*
X137106154Y-73335000D01*
X137617036Y-73233379D01*
X138037403Y-72952500D01*
X144605462Y-72952500D01*
X145047500Y-73394539D01*
X145047500Y-75241914D01*
X144699449Y-75589357D01*
X144465267Y-76153330D01*
X144464735Y-76763991D01*
X144697932Y-77328371D01*
X144875092Y-77505841D01*
X144740301Y-77561673D01*
X144561673Y-77740302D01*
X144465000Y-77973691D01*
X144465000Y-78714250D01*
X144623750Y-78873000D01*
X145873000Y-78873000D01*
X145873000Y-78853000D01*
X146127000Y-78853000D01*
X146127000Y-78873000D01*
X147376250Y-78873000D01*
X147535000Y-78714250D01*
X147535000Y-77973691D01*
X147438327Y-77740302D01*
X147259699Y-77561673D01*
X147125006Y-77505881D01*
X147130897Y-77500000D01*
X156208861Y-77500000D01*
X156264754Y-77780993D01*
X156264613Y-77942619D01*
X156326879Y-78093313D01*
X156383264Y-78376781D01*
X156542434Y-78614996D01*
X156604155Y-78764372D01*
X156719347Y-78879766D01*
X156879920Y-79120080D01*
X157118134Y-79279249D01*
X157232321Y-79393636D01*
X157382906Y-79456164D01*
X157623219Y-79616736D01*
X157904212Y-79672629D01*
X158053481Y-79734611D01*
X158216531Y-79734753D01*
X158500000Y-79791139D01*
X158780993Y-79735246D01*
X158942619Y-79735387D01*
X159093313Y-79673121D01*
X159376781Y-79616736D01*
X159614996Y-79457566D01*
X159764372Y-79395845D01*
X159874660Y-79285750D01*
X166965000Y-79285750D01*
X166965000Y-80026309D01*
X167061673Y-80259698D01*
X167240301Y-80438327D01*
X167473690Y-80535000D01*
X168214250Y-80535000D01*
X168373000Y-80376250D01*
X168373000Y-79127000D01*
X168627000Y-79127000D01*
X168627000Y-80376250D01*
X168785750Y-80535000D01*
X169526310Y-80535000D01*
X169759699Y-80438327D01*
X169938327Y-80259698D01*
X170035000Y-80026309D01*
X170035000Y-79285750D01*
X169876250Y-79127000D01*
X168627000Y-79127000D01*
X168373000Y-79127000D01*
X167123750Y-79127000D01*
X166965000Y-79285750D01*
X159874660Y-79285750D01*
X159879766Y-79280653D01*
X160120080Y-79120080D01*
X160279249Y-78881866D01*
X160393636Y-78767679D01*
X160456164Y-78617094D01*
X160616736Y-78376781D01*
X160672629Y-78095788D01*
X160734611Y-77946519D01*
X160734753Y-77783469D01*
X160791139Y-77500000D01*
X160735246Y-77219007D01*
X160735387Y-77057381D01*
X160673121Y-76906687D01*
X160616736Y-76623219D01*
X160457566Y-76385004D01*
X160395845Y-76235628D01*
X160280653Y-76120234D01*
X160120080Y-75879920D01*
X159881866Y-75720751D01*
X159767679Y-75606364D01*
X159617094Y-75543836D01*
X159376781Y-75383264D01*
X159095788Y-75327371D01*
X158946519Y-75265389D01*
X158783469Y-75265247D01*
X158500000Y-75208861D01*
X158219007Y-75264754D01*
X158057381Y-75264613D01*
X157906687Y-75326879D01*
X157623219Y-75383264D01*
X157385004Y-75542434D01*
X157235628Y-75604155D01*
X157120234Y-75719347D01*
X156879920Y-75879920D01*
X156720751Y-76118134D01*
X156606364Y-76232321D01*
X156543836Y-76382906D01*
X156383264Y-76623219D01*
X156327371Y-76904212D01*
X156265389Y-77053481D01*
X156265247Y-77216531D01*
X156208861Y-77500000D01*
X147130897Y-77500000D01*
X147300551Y-77330643D01*
X147534733Y-76766670D01*
X147535265Y-76156009D01*
X147302068Y-75591629D01*
X146952500Y-75241449D01*
X146952500Y-74893846D01*
X151665000Y-74893846D01*
X151665000Y-74946154D01*
X151766621Y-75457036D01*
X152056012Y-75890142D01*
X152489118Y-76179533D01*
X153000000Y-76281154D01*
X153510882Y-76179533D01*
X153943988Y-75890142D01*
X154233379Y-75457036D01*
X154335000Y-74946154D01*
X154335000Y-74893846D01*
X154233379Y-74382964D01*
X153952500Y-73962597D01*
X153952500Y-73394538D01*
X154394539Y-72952500D01*
X167105462Y-72952500D01*
X167547500Y-73394539D01*
X167547500Y-75241914D01*
X167199449Y-75589357D01*
X166965267Y-76153330D01*
X166964735Y-76763991D01*
X167197932Y-77328371D01*
X167375092Y-77505841D01*
X167240301Y-77561673D01*
X167061673Y-77740302D01*
X166965000Y-77973691D01*
X166965000Y-78714250D01*
X167123750Y-78873000D01*
X168373000Y-78873000D01*
X168373000Y-78853000D01*
X168627000Y-78853000D01*
X168627000Y-78873000D01*
X169876250Y-78873000D01*
X170035000Y-78714250D01*
X170035000Y-77973691D01*
X169938327Y-77740302D01*
X169759699Y-77561673D01*
X169625006Y-77505881D01*
X169800551Y-77330643D01*
X170034733Y-76766670D01*
X170035265Y-76156009D01*
X169802068Y-75591629D01*
X169452500Y-75241449D01*
X169452500Y-74563110D01*
X175558524Y-74563110D01*
X175679845Y-74793000D01*
X176873000Y-74793000D01*
X176873000Y-73599181D01*
X177127000Y-73599181D01*
X177127000Y-74793000D01*
X178320155Y-74793000D01*
X178441476Y-74563110D01*
X178271645Y-74153076D01*
X177881358Y-73724817D01*
X177356892Y-73478514D01*
X177127000Y-73599181D01*
X176873000Y-73599181D01*
X176643108Y-73478514D01*
X176118642Y-73724817D01*
X175728355Y-74153076D01*
X175558524Y-74563110D01*
X169452500Y-74563110D01*
X169452500Y-73000000D01*
X169379995Y-72635494D01*
X169198927Y-72364506D01*
X169173520Y-72326481D01*
X168173519Y-71326481D01*
X167864506Y-71120005D01*
X167500000Y-71047500D01*
X154000000Y-71047500D01*
X153635494Y-71120005D01*
X153511721Y-71202707D01*
X153326481Y-71326480D01*
X152326481Y-72326481D01*
X152120005Y-72635494D01*
X152047500Y-73000000D01*
X152047500Y-73962597D01*
X151766621Y-74382964D01*
X151665000Y-74893846D01*
X146952500Y-74893846D01*
X146952500Y-73000000D01*
X146879995Y-72635494D01*
X146698927Y-72364506D01*
X146673520Y-72326481D01*
X145673519Y-71326481D01*
X145364506Y-71120005D01*
X145000000Y-71047500D01*
X138037403Y-71047500D01*
X137617036Y-70766621D01*
X137332384Y-70710000D01*
X186790000Y-70710000D01*
X186790000Y-84290000D01*
X137373851Y-84290000D01*
X137755229Y-84132418D01*
X137935461Y-83952500D01*
X171500000Y-83952500D01*
X171647069Y-83923246D01*
X171795940Y-83905359D01*
X171828202Y-83887216D01*
X171864506Y-83879995D01*
X171989179Y-83796691D01*
X172119879Y-83723192D01*
X175352353Y-80952500D01*
X175521847Y-80952500D01*
X175546838Y-81085317D01*
X175685910Y-81301441D01*
X175898110Y-81446431D01*
X176150000Y-81497440D01*
X177850000Y-81497440D01*
X178085317Y-81453162D01*
X178301441Y-81314090D01*
X178446431Y-81101890D01*
X178497440Y-80850000D01*
X178497440Y-79150000D01*
X178453162Y-78914683D01*
X178314090Y-78698559D01*
X178101890Y-78553569D01*
X178034459Y-78539914D01*
X178079147Y-78510054D01*
X178401054Y-78028285D01*
X178514093Y-77460000D01*
X178401054Y-76891715D01*
X178079147Y-76409946D01*
X177738447Y-76182298D01*
X177881358Y-76115183D01*
X178271645Y-75686924D01*
X178441476Y-75276890D01*
X178320155Y-75047000D01*
X177127000Y-75047000D01*
X177127000Y-75067000D01*
X176873000Y-75067000D01*
X176873000Y-75047000D01*
X175679845Y-75047000D01*
X175558524Y-75276890D01*
X175728355Y-75686924D01*
X176118642Y-76115183D01*
X176261553Y-76182298D01*
X175920853Y-76409946D01*
X175598946Y-76891715D01*
X175485907Y-77460000D01*
X175598946Y-78028285D01*
X175920853Y-78510054D01*
X175962452Y-78537850D01*
X175914683Y-78546838D01*
X175698559Y-78685910D01*
X175553569Y-78898110D01*
X175523317Y-79047500D01*
X175000000Y-79047500D01*
X174852931Y-79076754D01*
X174704060Y-79094641D01*
X174671798Y-79112784D01*
X174635494Y-79120005D01*
X174510821Y-79203309D01*
X174380121Y-79276808D01*
X171147647Y-82047500D01*
X153952500Y-82047500D01*
X153952500Y-80935491D01*
X154131098Y-80757204D01*
X154334768Y-80266713D01*
X154335231Y-79735617D01*
X154132418Y-79244771D01*
X153757204Y-78868902D01*
X153266713Y-78665232D01*
X152735617Y-78664769D01*
X152244771Y-78867582D01*
X151868902Y-79242796D01*
X151665232Y-79733287D01*
X151664769Y-80264383D01*
X151867582Y-80755229D01*
X152047500Y-80935461D01*
X152047500Y-82047500D01*
X137935491Y-82047500D01*
X137757204Y-81868902D01*
X137266713Y-81665232D01*
X136735617Y-81664769D01*
X136244771Y-81867582D01*
X135868902Y-82242796D01*
X135665232Y-82733287D01*
X135664769Y-83264383D01*
X135867582Y-83755229D01*
X136242796Y-84131098D01*
X136625474Y-84290000D01*
X132172384Y-84290000D01*
X132457036Y-84233379D01*
X132890142Y-83943988D01*
X133179533Y-83510882D01*
X133281154Y-83000000D01*
X133179533Y-82489118D01*
X132890142Y-82056012D01*
X132457036Y-81766621D01*
X131946154Y-81665000D01*
X131893846Y-81665000D01*
X131382964Y-81766621D01*
X130962597Y-82047500D01*
X128894539Y-82047500D01*
X128452500Y-81605462D01*
X128452500Y-77500000D01*
X131208861Y-77500000D01*
X131264754Y-77780993D01*
X131264613Y-77942619D01*
X131326879Y-78093313D01*
X131383264Y-78376781D01*
X131542434Y-78614996D01*
X131604155Y-78764372D01*
X131719347Y-78879766D01*
X131879920Y-79120080D01*
X132118134Y-79279249D01*
X132232321Y-79393636D01*
X132382906Y-79456164D01*
X132623219Y-79616736D01*
X132904212Y-79672629D01*
X133053481Y-79734611D01*
X133216531Y-79734753D01*
X133500000Y-79791139D01*
X133780993Y-79735246D01*
X133942619Y-79735387D01*
X134093313Y-79673121D01*
X134376781Y-79616736D01*
X134614996Y-79457566D01*
X134764372Y-79395845D01*
X134874660Y-79285750D01*
X144465000Y-79285750D01*
X144465000Y-80026309D01*
X144561673Y-80259698D01*
X144740301Y-80438327D01*
X144973690Y-80535000D01*
X145714250Y-80535000D01*
X145873000Y-80376250D01*
X145873000Y-79127000D01*
X146127000Y-79127000D01*
X146127000Y-80376250D01*
X146285750Y-80535000D01*
X147026310Y-80535000D01*
X147259699Y-80438327D01*
X147438327Y-80259698D01*
X147535000Y-80026309D01*
X147535000Y-79285750D01*
X147376250Y-79127000D01*
X146127000Y-79127000D01*
X145873000Y-79127000D01*
X144623750Y-79127000D01*
X144465000Y-79285750D01*
X134874660Y-79285750D01*
X134879766Y-79280653D01*
X135120080Y-79120080D01*
X135279249Y-78881866D01*
X135393636Y-78767679D01*
X135456164Y-78617094D01*
X135616736Y-78376781D01*
X135672629Y-78095788D01*
X135734611Y-77946519D01*
X135734753Y-77783469D01*
X135791139Y-77500000D01*
X135735246Y-77219007D01*
X135735387Y-77057381D01*
X135673121Y-76906687D01*
X135616736Y-76623219D01*
X135457566Y-76385004D01*
X135395845Y-76235628D01*
X135280653Y-76120234D01*
X135120080Y-75879920D01*
X134881866Y-75720751D01*
X134767679Y-75606364D01*
X134617094Y-75543836D01*
X134376781Y-75383264D01*
X134095788Y-75327371D01*
X133946519Y-75265389D01*
X133783469Y-75265247D01*
X133500000Y-75208861D01*
X133219007Y-75264754D01*
X133057381Y-75264613D01*
X132906687Y-75326879D01*
X132623219Y-75383264D01*
X132385004Y-75542434D01*
X132235628Y-75604155D01*
X132120234Y-75719347D01*
X131879920Y-75879920D01*
X131720751Y-76118134D01*
X131606364Y-76232321D01*
X131543836Y-76382906D01*
X131383264Y-76623219D01*
X131327371Y-76904212D01*
X131265389Y-77053481D01*
X131265247Y-77216531D01*
X131208861Y-77500000D01*
X128452500Y-77500000D01*
X128379995Y-77135494D01*
X128297293Y-77011721D01*
X128173520Y-76826481D01*
X127173519Y-75826481D01*
X126864506Y-75620005D01*
X126500000Y-75547500D01*
X124758016Y-75547500D01*
X124370643Y-75159449D01*
X123806670Y-74925267D01*
X123196009Y-74924735D01*
X122631629Y-75157932D01*
X122199449Y-75589357D01*
X121965267Y-76153330D01*
X121964735Y-76763991D01*
X122197932Y-77328371D01*
X122375092Y-77505841D01*
X122240301Y-77561673D01*
X122061673Y-77740302D01*
X121965000Y-77973691D01*
X121965000Y-78714250D01*
X122123750Y-78873000D01*
X123373000Y-78873000D01*
X123373000Y-78853000D01*
X123627000Y-78853000D01*
X123627000Y-78873000D01*
X124876250Y-78873000D01*
X125035000Y-78714250D01*
X125035000Y-77973691D01*
X124938327Y-77740302D01*
X124759699Y-77561673D01*
X124625006Y-77505881D01*
X124678481Y-77452500D01*
X126105462Y-77452500D01*
X126547500Y-77894539D01*
X126547500Y-82000000D01*
X126620005Y-82364506D01*
X126826481Y-82673519D01*
X127826481Y-83673520D01*
X127951724Y-83757204D01*
X128135494Y-83879995D01*
X128500000Y-83952500D01*
X130962597Y-83952500D01*
X131382964Y-84233379D01*
X131667616Y-84290000D01*
X105210000Y-84290000D01*
X105210000Y-72543571D01*
X107665000Y-72543571D01*
X107665000Y-82456429D01*
X111485000Y-82456429D01*
X111485000Y-80436890D01*
X113558524Y-80436890D01*
X113728355Y-80846924D01*
X114118642Y-81275183D01*
X114643108Y-81521486D01*
X114873000Y-81400819D01*
X114873000Y-80207000D01*
X115127000Y-80207000D01*
X115127000Y-81400819D01*
X115356892Y-81521486D01*
X115881358Y-81275183D01*
X116271645Y-80846924D01*
X116441476Y-80436890D01*
X116320155Y-80207000D01*
X115127000Y-80207000D01*
X114873000Y-80207000D01*
X113679845Y-80207000D01*
X113558524Y-80436890D01*
X111485000Y-80436890D01*
X111485000Y-72543571D01*
X107665000Y-72543571D01*
X105210000Y-72543571D01*
X105210000Y-70710000D01*
X131626149Y-70710000D01*
X131244771Y-70867582D01*
M02*
